<svg width="24" height="24" viewBox="0 0 24 24" fill="none" xmlns="http://www.w3.org/2000/svg">
<path d="M7.99834 17.5023L9.99917 19.5031L7.99834 21.504" stroke="#A4ABAA" stroke-linecap="round" stroke-linejoin="round"/>
<path d="M3.99667 19.5031H9.99917" stroke="#A4ABAA" stroke-linecap="round" stroke-linejoin="round"/>
<path d="M13.9983 20.277C17.7387 19.4254 20.5285 16.2969 20.9478 12.4838C21.3671 8.6707 19.3239 5.01077 15.858 3.3667C12.392 1.72262 8.265 2.45565 5.57723 5.19272C2.88946 7.92979 2.23156 12.0695 3.93836 15.505" stroke="#A4ABAA" stroke-linecap="round" stroke-linejoin="round"/>
<path d="M12 8.49221V7.49179" stroke="#A4ABAA" stroke-linecap="round" stroke-linejoin="round"/>
<path d="M12 14.4947V15.4951" stroke="#A4ABAA" stroke-linecap="round" stroke-linejoin="round"/>
<path d="M10.2653 13.7804C10.5224 14.2192 10.9912 14.4905 11.4998 14.4947H12.6003C13.321 14.5129 13.9378 13.981 14.0257 13.2654C14.1137 12.5499 13.6441 11.8844 12.9404 11.7276L11.0656 11.2564C10.3704 11.0934 9.909 10.4335 9.9947 9.72463C10.0804 9.01571 10.6857 8.48476 11.3998 8.4922H12.5002C13.0092 8.49565 13.4788 8.7671 13.7357 9.2065" stroke="#A4ABAA" stroke-linecap="round" stroke-linejoin="round"/>
</svg>
