<?xml version="1.0" standalone="yes"?>
<svg xmlns="http://www.w3.org/2000/svg" width="24" height="24">
<path style="fill:#A4ABAA; stroke:none;" d="M0 0L0 24L24 24L24 0L0 0z"/>
<path style="fill:#A4ABAA; stroke:none;" d="M4 4L2 8L3 8L4 4z"/>
<path style="fill:#A4ABAA; stroke:none;" d="M5.22839 5.02778C-4.90422 11.223 7.0509 24.4181 16.7099 18.821C28.2337 12.1432 14.3291 -0.536556 5.22839 5.02778z"/>
<path style="fill:#A4ABAA; stroke:none;" d="M16 4L17 5L16 4z"/>
<path style="fill:#010101; stroke:none;" d="M5.60339 7.02778C-2.02304 13.068 9.91333 21.7799 16.7677 16.3966C24.6881 10.1761 11.3525 2.47438 5.60339 7.02778z"/>
<path style="fill:#A4ABAA; stroke:none;" d="M18 6L19 7L18 6z"/>
<path style="fill:#A4ABAA; stroke:none;" d="M19 7L20 8L19 7z"/>
<path style="fill:#A4ABAA; stroke:none;" d="M12 10L11 12L12 10z"/>
<path style="fill:#7dc1b5; stroke:none;" d="M13 10L9 11L10 14L13 10z"/>
<path style="fill:#7ebfb0; stroke:none;" d="M14 10L15 11L14 10M19 10L20 11L19 10M21 10L22 11L21 10M8.33333 11.6667L8.66667 12.3333L8.33333 11.6667M9 13L10 14L9 13M19 13L20 14L19 13z"/>
<path style="fill:#74bfaf; stroke:none;" d="M19 16L20 17L19 16z"/>
<path style="fill:#7ebfb0; stroke:none;" d="M2 17L3 18L2 17M4 17L5 18L4 17z"/>
<path style="fill:#74bfaf; stroke:none;" d="M18 17L19 18L18 17z"/>
<path style="fill:#7ebfb0; stroke:none;" d="M3 18L4 19L3 18z"/>
<path style="fill:#77bfb7; stroke:none;" d="M4 19L5 20L4 19z"/>
<path style="fill:#74bfaf; stroke:none;" d="M16 19L17 20L16 19z"/>
</svg>
