<svg width="24" height="24" viewBox="0 0 24 24" fill="none" xmlns="http://www.w3.org/2000/svg">
<path d="M11.677 7.32105C11.7745 7.41879 11.7744 7.57703 11.6767 7.6746C11.5791 7.77217 11.4208 7.77217 11.3232 7.6746C11.2255 7.57703 11.2254 7.41879 11.3229 7.32105C11.3698 7.27401 11.4335 7.24757 11.5 7.24757C11.5664 7.24757 11.6301 7.27401 11.677 7.32105" stroke="#485654" stroke-linecap="round" stroke-linejoin="round"/>
<path d="M21.0039 8.52856C18.851 8.19773 16.6615 8.82807 15.014 10.2529C13.3666 11.6777 12.4273 13.7536 12.4443 15.9316C12.4471 16.2901 12.4759 16.6478 12.5304 17.0021" stroke="#485654" stroke-linecap="round" stroke-linejoin="round"/>
<path d="M6.998 6.99792H5.99759C4.34004 6.99792 2.99634 8.34163 2.99634 9.99917V18.0025C2.99634 19.6601 4.34004 21.0038 5.99759 21.0038H14.0009C15.6585 21.0038 17.0022 19.6601 17.0022 18.0025V17.0021" stroke="#485654" stroke-linecap="round" stroke-linejoin="round"/>
<path fill-rule="evenodd" clip-rule="evenodd" d="M18.0026 2.99625H9.9993C8.34175 2.99625 6.99805 4.33995 6.99805 5.9975V14.0008C6.99805 15.6584 8.34175 17.0021 9.9993 17.0021H18.0026C19.6602 17.0021 21.0039 15.6584 21.0039 14.0008V5.9975C21.0039 4.33995 19.6602 2.99625 18.0026 2.99625Z" stroke="#485654" stroke-linecap="round" stroke-linejoin="round"/>
</svg>
